<svg width="20" height="25" viewBox="0 0 20 25" fill="none" xmlns="http://www.w3.org/2000/svg">
<path fill-rule="evenodd" clip-rule="evenodd" d="M0 3C0 1.34315 1.34315 0 3 0H17C18.6569 0 20 1.34315 20 3V22C20 23.6569 18.6569 25 17 25H3C1.34315 25 0 23.6569 0 22V3ZM13 7C13 8.65685 11.6569 10 10 10C8.34315 10 7 8.65685 7 7C7 5.34315 8.34315 4 10 4C11.6569 4 13 5.34315 13 7ZM6 19C5.44772 19 5 19.4477 5 20C5 20.5523 5.44772 21 6 21H14C14.5523 21 15 20.5523 15 20C15 19.4477 14.5523 19 14 19H6ZM15 12V13H5V12H15ZM15 17V16H5V17H15Z" fill="#0C151C"/>
</svg>
