<svg width="20" height="20" viewBox="0 0 20 20" fill="none" xmlns="http://www.w3.org/2000/svg">
<path d="M17.3736 11.0553C17.3736 10.7538 17.4741 10.4523 17.4741 10.0503C17.4741 9.64824 17.4741 9.34673 17.3736 9.04523L19.4841 7.33668C19.6851 7.13568 19.6851 6.93467 19.5846 6.73367L17.5746 3.21608C17.4741 3.11558 17.2731 3.01508 16.9715 3.11558L14.459 4.1206C13.9565 3.71859 13.3535 3.41709 12.7505 3.11558L12.3484 0.502513C12.4489 0.201005 12.1474 0 11.9464 0H7.92634C7.72529 0 7.42383 0.201005 7.42383 0.40201L7.02182 3.11558C6.4188 3.31658 5.91629 3.71859 5.31328 4.1206L2.90122 3.11558C2.59972 3.01508 2.39871 3.11558 2.19767 3.31658L0.187621 6.83417C0.0871186 6.93467 0.187621 7.23618 0.388626 7.43719L2.49917 9.04523C2.49917 9.34673 2.39867 9.64824 2.39867 10.0503C2.39867 10.4523 2.39867 10.7538 2.49917 11.0553L0.388626 12.7638C0.187621 12.9649 0.187621 13.1658 0.288123 13.3669L2.29817 16.8845C2.39867 16.985 2.59964 17.0855 2.90118 16.985L5.41374 15.9799C5.91625 16.3819 6.51927 16.6835 7.12228 16.985L7.52429 19.598C7.52429 19.799 7.72529 20 8.0268 20H12.0469C12.2479 20 12.5494 19.799 12.5494 19.598L12.9514 16.985C13.5544 16.6835 14.1574 16.3819 14.66 15.9799L17.1725 16.985C17.3736 17.0855 17.675 16.985 17.7756 16.7839L19.7856 13.2663C19.8861 13.0653 19.8861 12.7638 19.6851 12.6633L17.3736 11.0553ZM9.93639 13.5678C8.02684 13.5678 6.4188 11.9598 6.4188 10.0503C6.4188 8.1407 8.02684 6.53266 9.93639 6.53266C11.8459 6.53266 13.454 8.1407 13.454 10.0503C13.454 11.9598 11.8459 13.5678 9.93639 13.5678Z" fill="#0C151C"/>
</svg>
