<svg width="20" height="20" viewBox="0 0 20 20" fill="none" xmlns="http://www.w3.org/2000/svg">
<g clip-path="url(#clip0_87_2)">
<circle cx="10" cy="6" r="4.4" fill="white" stroke="white" stroke-width="1.2"/>
<mask id="path-2-inside-1_87_2" fill="white">
<path d="M17 19C17 18.0807 16.8189 17.1705 16.4672 16.3212C16.1154 15.4719 15.5998 14.7003 14.9497 14.0503C14.2997 13.4002 13.5281 12.8846 12.6788 12.5328C11.8295 12.1811 10.9193 12 10 12C9.08075 12 8.17049 12.1811 7.32122 12.5328C6.47194 12.8846 5.70026 13.4002 5.05025 14.0503C4.40024 14.7003 3.88463 15.4719 3.53284 16.3212C3.18106 17.1705 3 18.0807 3 19L10 19H17Z"/>
</mask>
<path d="M17 19C17 18.0807 16.8189 17.1705 16.4672 16.3212C16.1154 15.4719 15.5998 14.7003 14.9497 14.0503C14.2997 13.4002 13.5281 12.8846 12.6788 12.5328C11.8295 12.1811 10.9193 12 10 12C9.08075 12 8.17049 12.1811 7.32122 12.5328C6.47194 12.8846 5.70026 13.4002 5.05025 14.0503C4.40024 14.7003 3.88463 15.4719 3.53284 16.3212C3.18106 17.1705 3 18.0807 3 19L10 19H17Z" fill="white" stroke="white" stroke-width="2" mask="url(#path-2-inside-1_87_2)"/>
</g>
<defs>
<clipPath id="clip0_87_2">
<rect width="20" height="20" fill="white"/>
</clipPath>
</defs>
</svg>
