<svg width="20" height="20" viewBox="0 0 20 20" fill="none" xmlns="http://www.w3.org/2000/svg">
<path fill-rule="evenodd" clip-rule="evenodd" d="M3.46154 12.0769C3.52871 12.0769 3.59543 12.075 3.66165 12.0712C3.69692 12.075 3.73275 12.0769 3.76902 12.0769H5.03836V15.2308C5.03836 15.5069 4.8145 15.7308 4.53836 15.7308H2.67621C2.4757 15.2132 1.97302 14.8462 1.38462 14.8462C0.619914 14.8462 0 15.4661 0 16.2308C0 16.9955 0.619914 17.6154 1.38462 17.6154C1.97301 17.6154 2.47569 17.2484 2.6762 16.7308H4.53836C5.36679 16.7308 6.03836 16.0592 6.03836 15.2308V12.0769H8.30786V17.5987L8.30776 17.6154C8.30776 18.3801 8.92768 19 9.69238 19C10.4571 19 11.077 18.3801 11.077 17.6154C11.077 16.8507 10.4571 16.2308 9.69238 16.2308C9.55896 16.2308 9.42994 16.2496 9.30786 16.2849V12.0769H11.9618V15.2308C11.9618 16.0592 12.6334 16.7308 13.4618 16.7308H15.3242C15.5247 17.2484 16.0273 17.6154 16.6157 17.6154C17.3804 17.6154 18.0004 16.9955 18.0004 16.2308C18.0004 15.4661 17.3804 14.8461 16.6157 14.8461C16.0273 14.8461 15.5247 15.2132 15.3242 15.7308H13.4618C13.1856 15.7308 12.9618 15.5069 12.9618 15.2308V12.0769H15.6152C15.6515 12.0769 15.6873 12.075 15.7226 12.0712C15.7889 12.075 15.8556 12.0769 15.9228 12.0769C17.8346 12.0769 19.3844 10.5272 19.3844 8.61539C19.3844 6.70364 17.8346 5.15385 15.9228 5.15385C15.5697 5.15385 15.229 5.20673 14.908 5.30499C14.3474 2.8399 12.1423 1 9.50743 1C6.90374 1 4.71968 2.79666 4.12739 5.21783C3.91192 5.17585 3.6893 5.15385 3.46154 5.15385C1.54979 5.15385 0 6.70364 0 8.61539C0 10.5272 1.54979 12.0769 3.46154 12.0769Z" fill="white"/>
</svg>
