<svg width="22" height="31" viewBox="0 0 22 31" fill="none" xmlns="http://www.w3.org/2000/svg">
<g clip-path="url(#clip0_543_26)">
<path d="M16.9713 10.1373V26.6555C16.9713 27.4249 16.3427 28.0584 15.5795 28.0584H4.78149C4.01823 28.0584 3.38966 27.4249 3.38966 26.6555V10.1373H16.9713ZM13.4468 11.9701V26.1803H14.255V11.9701H13.4468ZM9.78762 11.9701V26.1803H10.5958V11.9701H9.78762ZM6.12843 11.9701V26.1803H6.9366V11.9701H6.12843ZM7.02639 6.31319V5.13655C7.02639 4.38984 7.61007 3.80151 8.35088 3.80151H12.0325C12.7733 3.80151 13.357 4.38984 13.357 5.13655V6.31319H17.4203C18.1835 6.31319 18.8121 6.94677 18.8121 7.71611V8.68911H1.57129V7.69348C1.57129 6.92414 2.19986 6.29056 2.96313 6.29056H7.02639V6.31319ZM8.35088 4.70662C8.12639 4.70662 7.9468 4.88765 7.9468 5.11392V6.29056H12.459V5.11392C12.459 4.88765 12.2795 4.70662 12.055 4.70662H8.35088Z" fill="white"/>
</g>
<defs>
<clipPath id="clip0_543_26">
<rect width="22" height="31" fill="white"/>
</clipPath>
</defs>
</svg>
