<svg width="30" height="33" viewBox="0 0 30 33" fill="none" xmlns="http://www.w3.org/2000/svg">
<g clip-path="url(#clip0_264_2)">
<path d="M8.05 14.4286C8.65 11.2857 11.35 8.92857 14.5 8.92857C16.75 8.92857 18.55 10.0286 19.75 11.7571L22.3 8.61429C20.5 6.41429 17.65 5 14.5 5C9.25 5 4.9 9.08571 4.15 14.4286H1L6.25 20.7143L11.5 14.4286H8.05ZM22.75 11.2857L17.5 17.5714H20.95C20.2 20.7143 17.65 23.0714 14.5 23.0714C12.25 23.0714 10.45 21.9714 9.25 20.2429L6.7 23.2286C8.5 25.5857 11.35 27 14.5 27C19.75 27 24.1 22.9143 24.85 17.5714H28L22.75 11.2857Z" fill="white"/>
</g>
<defs>
<clipPath id="clip0_264_2">
<rect width="30" height="33" fill="white"/>
</clipPath>
</defs>
</svg>
