<svg width="53" height="55" viewBox="0 0 53 55" fill="none" xmlns="http://www.w3.org/2000/svg">
<mask id="path-1-inside-1_339_41" fill="white">
<path fill-rule="evenodd" clip-rule="evenodd" d="M21 29.5909C29.4349 29.5909 36.2727 22.9668 36.2727 14.7955C36.2727 6.62415 29.4349 0 21 0C12.5651 0 5.72724 6.62415 5.72724 14.7955C5.72724 22.9668 12.5651 29.5909 21 29.5909ZM40.4015 46.3728C41.4568 48.9206 42 51.6513 42 54.4091H21H0C0 51.6513 0.543181 48.9206 1.59853 46.3728C2.65388 43.8249 4.20073 41.5099 6.15076 39.5599C8.10079 37.6098 10.4158 36.063 12.9636 35.0076C15.5115 33.9523 18.2422 33.4091 21 33.4091C23.7578 33.4091 26.4885 33.9523 29.0364 35.0076C31.5842 36.063 33.8992 37.6098 35.8492 39.5599C37.7993 41.5099 39.3461 43.8249 40.4015 46.3728Z"/>
</mask>
<path fill-rule="evenodd" clip-rule="evenodd" d="M21 29.5909C29.4349 29.5909 36.2727 22.9668 36.2727 14.7955C36.2727 6.62415 29.4349 0 21 0C12.5651 0 5.72724 6.62415 5.72724 14.7955C5.72724 22.9668 12.5651 29.5909 21 29.5909ZM40.4015 46.3728C41.4568 48.9206 42 51.6513 42 54.4091H21H0C0 51.6513 0.543181 48.9206 1.59853 46.3728C2.65388 43.8249 4.20073 41.5099 6.15076 39.5599C8.10079 37.6098 10.4158 36.063 12.9636 35.0076C15.5115 33.9523 18.2422 33.4091 21 33.4091C23.7578 33.4091 26.4885 33.9523 29.0364 35.0076C31.5842 36.063 33.8992 37.6098 35.8492 39.5599C37.7993 41.5099 39.3461 43.8249 40.4015 46.3728Z" fill="#6B99C3"/>
<path d="M42 54.4091V55.4091H43V54.4091H42ZM40.4015 46.3728L41.3254 45.9901L41.3253 45.9901L40.4015 46.3728ZM0 54.4091H-1V55.4091H0V54.4091ZM1.59853 46.3728L2.52241 46.7554L2.52241 46.7554L1.59853 46.3728ZM6.15076 39.5599L5.44365 38.8528L5.44365 38.8528L6.15076 39.5599ZM12.9636 35.0076L12.581 34.0838L12.581 34.0838L12.9636 35.0076ZM29.0364 35.0076L29.419 34.0838L29.419 34.0838L29.0364 35.0076ZM35.8492 39.5599L36.5564 38.8528L36.5563 38.8528L35.8492 39.5599ZM35.2727 14.7955C35.2727 22.3848 28.9127 28.5909 21 28.5909V30.5909C29.957 30.5909 37.2727 23.5487 37.2727 14.7955H35.2727ZM21 1C28.9127 1 35.2727 7.20613 35.2727 14.7955H37.2727C37.2727 6.04218 29.957 -1 21 -1V1ZM6.72724 14.7955C6.72724 7.20613 13.0872 1 21 1V-1C12.043 -1 4.72724 6.04218 4.72724 14.7955H6.72724ZM21 28.5909C13.0872 28.5909 6.72724 22.3848 6.72724 14.7955H4.72724C4.72724 23.5487 12.043 30.5909 21 30.5909V28.5909ZM43 54.4091C43 51.52 42.431 48.6592 41.3254 45.9901L39.4776 46.7554C40.4827 49.182 41 51.7827 41 54.4091H43ZM21 55.4091H42V53.4091H21V55.4091ZM0 55.4091H21V53.4091H0V55.4091ZM0.67465 45.9901C-0.430954 48.6592 -1 51.52 -1 54.4091H1C1 51.7827 1.51731 49.182 2.52241 46.7554L0.67465 45.9901ZM5.44365 38.8528C3.40076 40.8956 1.78025 43.3209 0.67465 45.9901L2.52241 46.7554C3.5275 44.3289 5.00069 42.1241 6.85786 40.267L5.44365 38.8528ZM12.581 34.0838C9.9118 35.1894 7.48654 36.8099 5.44365 38.8528L6.85786 40.267C8.71504 38.4098 10.9198 36.9366 13.3463 35.9315L12.581 34.0838ZM21 32.4091C18.1109 32.4091 15.2501 32.9782 12.581 34.0838L13.3463 35.9315C15.7728 34.9264 18.3736 34.4091 21 34.4091V32.4091ZM29.419 34.0838C26.7499 32.9782 23.8891 32.4091 21 32.4091V34.4091C23.6264 34.4091 26.2272 34.9264 28.6537 35.9315L29.419 34.0838ZM36.5563 38.8528C34.5135 36.8099 32.0882 35.1894 29.419 34.0838L28.6537 35.9315C31.0802 36.9366 33.285 38.4098 35.1421 40.267L36.5563 38.8528ZM41.3253 45.9901C40.2197 43.3209 38.5992 40.8956 36.5564 38.8528L35.1421 40.267C36.9993 42.1241 38.4725 44.3289 39.4776 46.7554L41.3253 45.9901Z" fill="#6B99C3" mask="url(#path-1-inside-1_339_41)"/>
<rect x="18.6" y="22.6" width="33.8" height="31.8" rx="5.4" fill="#16354D"/>
<rect x="18.6" y="22.6" width="33.8" height="31.8" rx="5.4" stroke="#6B99C3" stroke-width="1.2" stroke-linejoin="bevel"/>
<ellipse cx="26.6667" cy="31.8" rx="1.66667" ry="1.8" fill="#6B99C3"/>
<ellipse cx="26.6667" cy="39.0001" rx="1.66667" ry="1.8" fill="#6B99C3"/>
<ellipse cx="26.6667" cy="46.2" rx="1.66667" ry="1.8" fill="#6B99C3"/>
<rect x="30" y="31.7999" width="15" height="1.8" rx="0.9" fill="#6B99C3"/>
<rect x="30" y="39" width="15" height="1.8" rx="0.9" fill="#6B99C3"/>
<rect x="30" y="46.2001" width="15" height="1.8" rx="0.9" fill="#6B99C3"/>
</svg>
