<svg width="136" height="126" viewBox="0 0 136 126" fill="none" xmlns="http://www.w3.org/2000/svg">
<path fill-rule="evenodd" clip-rule="evenodd" d="M0 53.3077C0 65.0875 8.40586 74.904 19.5465 77.0861C19.7251 77.3587 20.0333 77.5387 20.3835 77.5387H35.2686V103.116H18.7337C17.3303 99.4922 13.8114 96.9227 9.69235 96.9227C4.33941 96.9227 0 101.262 0 106.615C0 111.968 4.33941 116.307 9.69235 116.307C13.8109 116.307 17.3295 113.739 18.7333 110.116H37.7686C40.2539 110.116 42.2686 108.101 42.2686 105.616V77.5387H58.1551V116.308H58.1552C58.1555 121.661 62.4948 126 67.8476 126C73.2005 126 77.5399 121.661 77.5399 116.308C77.5399 110.955 73.2005 106.615 67.8476 106.615C66.5402 106.615 65.2932 106.874 64.1551 107.343V77.5387H66.4748L66.5525 77.5388L66.6303 77.5387H84.2317V105.616C84.2317 107.825 86.0226 109.616 88.2317 109.616H107.09C108.353 113.5 112.004 116.308 116.31 116.308C121.662 116.308 126.002 111.969 126.002 106.616C126.002 101.263 121.662 96.9235 116.31 96.9235C112.004 96.9235 108.354 99.7311 107.091 103.616H90.2317V77.5387H115.307C115.657 77.5387 115.965 77.3587 116.144 77.0861C127.285 74.9039 135.69 65.0874 135.69 53.3077C135.69 39.9253 124.842 29.0768 111.46 29.0768C108.988 29.0768 106.603 29.4468 104.357 30.1345C100.432 12.8791 84.9962 0 66.5525 0C48.3267 0 33.0383 12.5765 28.8921 29.5247C27.3837 29.2308 25.8253 29.0768 24.2309 29.0768C10.8485 29.0768 0 39.9253 0 53.3077Z" fill="#6B99C3"/>
</svg>
