<svg width="124" height="154" viewBox="0 0 124 154" fill="none" xmlns="http://www.w3.org/2000/svg">
<path fill-rule="evenodd" clip-rule="evenodd" d="M0 18C0 8.05887 8.05887 0 18 0H105.2C115.141 0 123.2 8.05887 123.2 18V136C123.2 145.941 115.141 154 105.2 154H18C8.05888 154 0 145.941 0 136V18ZM80.0799 43.12C80.0799 53.3262 71.8062 61.6 61.5999 61.6C51.3937 61.6 43.1199 53.3262 43.1199 43.12C43.1199 32.9138 51.3937 24.64 61.5999 24.64C71.8062 24.64 80.0799 32.9138 80.0799 43.12ZM36.96 117.04C33.5579 117.04 30.7999 119.798 30.7999 123.2C30.7999 126.602 33.5579 129.36 36.96 129.36H86.2399C89.642 129.36 92.3999 126.602 92.3999 123.2C92.3999 119.798 89.642 117.04 86.2399 117.04H36.96ZM31 75H92V85H31V75ZM92 93H31V103H92V93Z" fill="#16354D"/>
</svg>
