<svg width="124" height="126" viewBox="0 0 124 126" fill="none" xmlns="http://www.w3.org/2000/svg">
<path d="M108.286 69.6481C108.286 67.7486 108.918 65.8491 108.918 63.3165C108.918 60.7838 108.918 58.8843 108.286 56.9848L121.554 46.221C122.818 44.9547 122.818 43.6884 122.186 42.422L109.55 20.2613C108.918 19.6281 107.655 18.9949 105.759 19.6281L89.9639 25.9597C86.8049 23.4271 83.0141 21.5276 79.2233 19.6281L76.6961 3.16582C77.3279 1.26633 75.4323 0 74.1689 0H48.8968C47.633 0 45.7378 1.26633 45.7378 2.53266L43.2106 19.6281C39.4198 20.8944 36.2608 23.4271 32.47 25.9597L17.3068 19.6281C15.4113 18.9949 14.1477 19.6281 12.8839 20.8944L0.247859 43.0552C-0.383943 43.6884 0.247859 45.5878 1.51146 46.8542L14.7793 56.9848C14.7793 58.8843 14.1475 60.7838 14.1475 63.3165C14.1475 65.8491 14.1475 67.7486 14.7793 69.6481L1.51146 80.4119C0.247859 81.6785 0.247859 82.9446 0.87966 84.2111L13.5157 106.372C14.1475 107.005 15.4109 107.638 17.3065 107.005L33.1015 100.673C36.2606 103.206 40.0514 105.106 43.8422 107.005L46.3694 123.467C46.3694 124.734 47.633 126 49.5284 126H74.8004C76.0643 126 77.9595 124.733 77.9595 123.467L80.4867 107.005C84.2775 105.106 88.0683 103.206 91.2273 100.673L107.022 107.005C108.286 107.638 110.181 107.005 110.813 105.738L123.449 83.5777C124.081 82.3114 124.081 80.4119 122.817 79.7787L108.286 69.6481ZM61.5329 85.4772C49.5286 85.4772 39.4198 75.3466 39.4198 63.3165C39.4198 51.2863 49.5286 41.1557 61.5329 41.1557C73.5371 41.1557 83.6459 51.2863 83.6459 63.3165C83.6459 75.3466 73.5371 85.4772 61.5329 85.4772Z" fill="#6B99C3"/>
</svg>
