<svg width="48" height="62" viewBox="0 0 48 62" fill="none" xmlns="http://www.w3.org/2000/svg">
<path fill-rule="evenodd" clip-rule="evenodd" d="M23.9298 33.7193C33.5415 33.7193 41.3333 26.171 41.3333 16.8596C41.3333 7.54832 33.5415 0 23.9298 0C14.3181 0 6.52632 7.54832 6.52632 16.8596C6.52632 26.171 14.3181 33.7193 23.9298 33.7193ZM46.0381 52.8425C47.2407 55.7458 47.8596 58.8575 47.8596 62H23.9298H0C0 58.8575 0.618963 55.7458 1.82155 52.8425C3.02413 49.9392 4.78679 47.3011 7.00888 45.0791C9.23097 42.857 11.869 41.0943 14.7723 39.8917C17.6756 38.6891 20.7873 38.0702 23.9298 38.0702C27.0723 38.0702 30.1841 38.6891 33.0874 39.8917C35.9907 41.0943 38.6287 42.857 40.8508 45.0791C43.0729 47.3011 44.8355 49.9392 46.0381 52.8425Z" fill="#6B99C3"/>
</svg>
